<svg width="232" height="27" viewBox="0 0 232 27" fill="none" xmlns="http://www.w3.org/2000/svg">
<path d="M13.9391 9.46409H4.36216V11.5856H12.5908V15.7845H4.36216V20.7348H0V5.26519H13.9391V9.46409Z" fill="#ED0007"/>
<path d="M26.5985 5C31.0399 5 34.2124 8.22652 34.2124 13C34.2124 17.7956 31.0399 21 26.5985 21H23.9217C19.5794 21 16.3077 17.7956 16.3077 13C16.3077 8.22652 19.4802 5 23.9217 5H26.5985ZM26.5985 16.4696C28.4821 16.4696 29.7709 15.011 29.7709 13C29.7709 11.011 28.4821 9.53039 26.5985 9.53039H23.9217C22.038 9.53039 20.7492 11.011 20.7492 13C20.7492 15.011 22.038 16.4696 23.9217 16.4696H26.5985Z" fill="#ED0007"/>
<path d="M37.1844 20.7348V5.26519H47.376C50.9252 5.26519 53.2649 7.93923 53.2649 11.232C53.2649 13.3536 52.2934 15.2099 50.6476 16.2707L53.3046 20.7348H48.2485L46.3648 17.1989H41.5664V20.7348H37.1844ZM41.5664 12.9337H47.376C48.2088 12.9337 48.9028 12.1823 48.9028 11.232C48.9028 10.2818 48.2088 9.53039 47.376 9.53039H41.5664V12.9337Z" fill="#ED0007"/>
<path d="M70.345 5.26519H74.6081V20.7348H70.345V12.4254L65.6061 17.7956L60.669 12.3149V20.7348H56.406V5.26519H60.669L65.6061 10.9669L70.345 5.26519Z" fill="#ED0007"/>
<path d="M91.9095 9.46409H82.3326V11.5856H90.5612V15.7845H82.3326V20.7348H77.9704V5.26519H91.9095V9.46409Z" fill="#ED0007"/>
<path d="M104.569 5C109.01 5 112.183 8.22652 112.183 13C112.183 17.7956 109.01 21 104.569 21H101.892C97.5498 21 94.2782 17.7956 94.2782 13C94.2782 8.22652 97.4507 5 101.892 5H104.569ZM104.569 16.4696C106.453 16.4696 107.741 15.011 107.741 13C107.741 11.011 106.453 9.53039 104.569 9.53039H101.892C100.008 9.53039 98.7197 11.011 98.7197 13C98.7197 15.011 100.008 16.4696 101.892 16.4696H104.569Z" fill="#ED0007"/>
<path d="M121.996 21C117.752 21 115.155 18.4807 115.155 13.6851V5.26519H119.517V13.2873C119.517 14.9227 120.171 16.3591 121.996 16.3591H124.672C126.516 16.3591 127.151 14.9227 127.151 13.2873V5.26519H131.513V13.6851C131.513 18.4807 128.916 21 124.672 21H121.996Z" fill="#ED0007"/>
<path d="M134.88 20.7348V5.26519H145.071C148.621 5.26519 150.96 7.93923 150.96 11.232C150.96 13.3536 149.989 15.2099 148.343 16.2707L151 20.7348H145.944L144.06 17.1989H139.262V20.7348H134.88ZM139.262 12.9337H145.071C145.904 12.9337 146.598 12.1823 146.598 11.232C146.598 10.2818 145.904 9.53039 145.071 9.53039H139.262V12.9337Z" fill="#ED0007"/>
<path d="M166.639 20.748L166.135 16.611H159.877L157.588 20.748C157.49 20.916 157.371 21 157.231 21H156.601C156.475 21 156.412 20.958 156.412 20.874C156.412 20.804 156.447 20.713 156.517 20.601L164.56 6.384C164.644 6.23 164.714 6.139 164.77 6.111C164.826 6.069 164.903 6.048 165.001 6.048H165.568C165.75 6.048 165.848 6.139 165.862 6.321L167.647 20.454C167.661 20.538 167.668 20.65 167.668 20.79C167.668 20.93 167.584 21 167.416 21H166.912C166.744 21 166.653 20.916 166.639 20.748ZM165.043 7.329L160.402 15.687H166.03L165.043 7.329ZM173.962 6.615L170.959 20.727C170.917 20.909 170.805 21 170.623 21H170.224C170.098 21 170.014 20.986 169.972 20.958C169.944 20.93 169.93 20.881 169.93 20.811C169.93 20.741 169.951 20.615 169.993 20.433L172.996 6.321C173.038 6.139 173.15 6.048 173.332 6.048H173.731C173.927 6.048 174.025 6.111 174.025 6.237C174.025 6.251 174.018 6.286 174.004 6.342C174.004 6.384 173.99 6.475 173.962 6.615ZM179.135 15.855H175.712L175.586 16.485C175.53 16.709 175.488 16.947 175.46 17.199C175.432 17.451 175.418 17.647 175.418 17.787C175.418 18.641 175.642 19.292 176.09 19.74C176.552 20.188 177.217 20.412 178.085 20.412C179.457 20.412 180.381 19.88 180.857 18.816C180.927 18.648 180.99 18.55 181.046 18.522C181.102 18.48 181.207 18.459 181.361 18.459H181.592C181.844 18.459 181.97 18.522 181.97 18.648C181.97 18.76 181.928 18.914 181.844 19.11C181.774 19.292 181.676 19.488 181.55 19.698C180.878 20.762 179.723 21.294 178.085 21.294C176.895 21.294 175.978 20.993 175.334 20.391C174.704 19.789 174.389 18.921 174.389 17.787C174.389 17.647 174.396 17.465 174.41 17.241C174.438 17.017 174.473 16.8 174.515 16.59L174.956 14.511C175.586 11.445 177.21 9.912 179.828 9.912C180.878 9.912 181.704 10.15 182.306 10.626C182.922 11.102 183.23 11.718 183.23 12.474C183.23 13.622 182.866 14.476 182.138 15.036C181.424 15.582 180.423 15.855 179.135 15.855ZM175.964 14.721L175.901 14.994H179.324C180.22 14.994 180.92 14.791 181.424 14.385C181.928 13.965 182.18 13.328 182.18 12.474C182.18 11.956 181.97 11.543 181.55 11.235C181.144 10.927 180.577 10.773 179.849 10.773C178.785 10.773 177.945 11.088 177.329 11.718C176.713 12.348 176.258 13.349 175.964 14.721ZM190.421 10.206C190.631 10.206 190.771 10.22 190.841 10.248C190.911 10.276 190.946 10.325 190.946 10.395C190.946 10.409 190.946 10.437 190.946 10.479C190.946 10.521 190.932 10.584 190.904 10.668L190.841 10.962C190.799 11.13 190.701 11.214 190.547 11.214H190.106C188.174 11.214 186.886 12.712 186.242 15.708L185.171 20.727C185.129 20.909 185.017 21 184.835 21H184.436C184.31 21 184.226 20.986 184.184 20.958C184.156 20.93 184.142 20.881 184.142 20.811C184.142 20.769 184.163 20.643 184.205 20.433L186.326 10.479C186.368 10.297 186.48 10.206 186.662 10.206H187.04C187.236 10.206 187.334 10.269 187.334 10.395C187.334 10.409 187.327 10.444 187.313 10.5C187.313 10.542 187.299 10.633 187.271 10.773L186.956 12.243C187.712 10.885 188.867 10.206 190.421 10.206ZM195.972 7.476L195.384 10.206H197.61C197.792 10.206 197.883 10.262 197.883 10.374C197.883 10.416 197.862 10.535 197.82 10.731L197.799 10.815C197.771 10.927 197.736 10.997 197.694 11.025C197.666 11.053 197.596 11.067 197.484 11.067H195.216L193.662 18.354C193.606 18.592 193.578 18.802 193.578 18.984C193.578 19.74 194.047 20.118 194.985 20.118H196.056C196.196 20.118 196.266 20.167 196.266 20.265C196.266 20.293 196.259 20.328 196.245 20.37C196.245 20.412 196.238 20.461 196.224 20.517L196.182 20.706C196.154 20.832 196.091 20.916 195.993 20.958C195.895 20.986 195.678 21 195.342 21H195.048C193.424 21 192.591 20.377 192.549 19.131C192.549 18.879 192.598 18.515 192.696 18.039L194.187 11.067H192.801C192.619 11.067 192.528 11.011 192.528 10.899C192.528 10.871 192.528 10.836 192.528 10.794C192.542 10.752 192.563 10.668 192.591 10.542L192.612 10.458C192.64 10.346 192.675 10.276 192.717 10.248C192.759 10.22 192.829 10.206 192.927 10.206H194.355L195.006 7.182C195.048 7 195.16 6.909 195.342 6.909H195.741C195.937 6.909 196.035 6.972 196.035 7.098C196.035 7.112 196.028 7.147 196.014 7.203C196.014 7.245 196 7.336 195.972 7.476ZM203.559 21.336C200.661 21.336 199.212 19.985 199.212 17.283C199.212 16.947 199.233 16.576 199.275 16.17C199.331 15.75 199.394 15.365 199.464 15.015L200.22 11.466C200.654 9.464 201.333 8.008 202.257 7.098C203.181 6.174 204.427 5.712 205.995 5.712C208.893 5.712 210.342 7.063 210.342 9.765C210.342 10.087 210.314 10.458 210.258 10.878C210.216 11.284 210.16 11.669 210.09 12.033L209.334 15.582C208.9 17.57 208.221 19.026 207.297 19.95C206.387 20.874 205.141 21.336 203.559 21.336ZM205.995 6.636C204.693 6.636 203.671 7.028 202.929 7.812C202.187 8.596 201.627 9.877 201.249 11.655L200.451 15.393C200.395 15.645 200.346 15.953 200.304 16.317C200.276 16.681 200.262 16.996 200.262 17.262C200.262 19.362 201.361 20.412 203.559 20.412C204.861 20.412 205.883 20.02 206.625 19.236C207.367 18.452 207.927 17.171 208.305 15.393L209.103 11.655C209.159 11.403 209.201 11.095 209.229 10.731C209.271 10.367 209.292 10.052 209.292 9.786C209.292 7.686 208.193 6.636 205.995 6.636ZM215.458 21.294C213.778 21.294 212.714 20.72 212.266 19.572L211.258 24.318C211.216 24.5 211.104 24.591 210.922 24.591H210.523C210.327 24.591 210.229 24.528 210.229 24.402C210.229 24.374 210.236 24.339 210.25 24.297C210.25 24.255 210.264 24.164 210.292 24.024L212.308 14.532C212.952 11.452 214.569 9.912 217.159 9.912C218.321 9.912 219.231 10.213 219.889 10.815C220.561 11.403 220.897 12.215 220.897 13.251C220.897 13.713 220.855 14.168 220.771 14.616L220.33 16.695C219.994 18.263 219.427 19.425 218.629 20.181C217.845 20.923 216.788 21.294 215.458 21.294ZM217.159 10.794C216.109 10.794 215.276 11.102 214.66 11.718C214.058 12.334 213.61 13.335 213.316 14.721L212.938 16.485C212.896 16.681 212.854 16.905 212.812 17.157C212.784 17.395 212.77 17.654 212.77 17.934C212.77 19.586 213.673 20.412 215.479 20.412C216.543 20.412 217.376 20.104 217.978 19.488C218.58 18.858 219.028 17.857 219.322 16.485L219.7 14.721C219.812 14.189 219.868 13.706 219.868 13.272C219.868 11.62 218.965 10.794 217.159 10.794ZM231.06 12.537C231.06 12.789 230.976 12.915 230.808 12.915H230.472C230.332 12.915 230.234 12.901 230.178 12.873C230.136 12.845 230.108 12.789 230.094 12.705C230.024 12.061 229.772 11.585 229.338 11.277C228.904 10.955 228.267 10.794 227.427 10.794C226.657 10.794 226.034 10.99 225.558 11.382C225.082 11.76 224.844 12.264 224.844 12.894C224.844 13.328 224.956 13.678 225.18 13.944C225.404 14.196 225.824 14.469 226.44 14.763L227.784 15.393C228.526 15.743 229.072 16.135 229.422 16.569C229.772 16.989 229.947 17.528 229.947 18.186C229.947 19.124 229.597 19.88 228.897 20.454C228.211 21.014 227.266 21.294 226.062 21.294C224.97 21.294 224.081 21.049 223.395 20.559C222.709 20.055 222.366 19.411 222.366 18.627C222.366 18.361 222.45 18.228 222.618 18.228H222.954C223.192 18.228 223.318 18.326 223.332 18.522C223.444 19.782 224.354 20.412 226.062 20.412C226.524 20.412 226.972 20.349 227.406 20.223C227.84 20.083 228.197 19.852 228.477 19.53C228.771 19.194 228.918 18.732 228.918 18.144C228.918 17.794 228.855 17.507 228.729 17.283C228.617 17.059 228.414 16.849 228.12 16.653C227.84 16.457 227.434 16.233 226.902 15.981L225.558 15.351C224.396 14.805 223.815 14.014 223.815 12.978C223.815 12.11 224.151 11.382 224.823 10.794C225.495 10.206 226.412 9.912 227.574 9.912C228.596 9.912 229.429 10.164 230.073 10.668C230.731 11.158 231.06 11.781 231.06 12.537Z" fill="white"/>
</svg>
